{"accessors":[{"bufferView":0,"byteOffset":0,"componentType":5126,"count":1074,"max":[1.36596763134003,0.386735171079636,2.74950003623962],"min":[-2.125,-0.0630723536014557,-0.745499968528748],"normalized":false,"type":"VEC3"},{"bufferView":1,"byteOffset":0,"componentType":5126,"count":1074,"max":[1.0,0.422614544630051,1.0,1.0],"min":[-1.0,-1.0,-1.0,-1.0],"normalized":false,"type":"VEC4"},{"bufferView":2,"byteOffset":0,"componentType":5126,"count":1074,"max":[1.0,1.0,1.0],"min":[-1.0,-1.0,-1.0],"normalized":false,"type":"VEC3"},{"bufferView":3,"byteOffset":0,"componentType":5126,"count":1074,"max":[1.0,1.0],"min":[0.0,0.0],"normalized":false,"type":"VEC2"},{"bufferView":4,"byteOffset":0,"componentType":5123,"count":1074,"max":[1073.0],"min":[0.0],"normalized":false,"type":"SCALAR"},{"bufferView":5,"byteOffset":0,"componentType":5126,"count":126,"max":[1.17000007629395,0.219999998807907,1.58000004291534],"min":[-0.865000069141388,-0.0199999958276749,0.269999980926514],"normalized":false,"type":"VEC3"},{"bufferView":6,"byteOffset":0,"componentType":5126,"count":126,"max":[0.0,0.0,0.0000152592547237873,1.0],"min":[-1.0,-1.0,-1.0,1.0],"normalized":false,"type":"VEC4"},{"bufferView":7,"byteOffset":0,"componentType":5126,"count":126,"max":[1.0,0.0,1.0],"min":[-1.0,-1.0,-1.0],"normalized":false,"type":"VEC3"},{"bufferView":8,"byteOffset":0,"componentType":5126,"count":126,"max":[1.0,1.0],"min":[0.0,0.0],"normalized":false,"type":"VEC2"},{"bufferView":9,"byteOffset":0,"componentType":5123,"count":126,"max":[125.0],"min":[0.0],"normalized":false,"type":"SCALAR"},{"bufferView":10,"byteOffset":0,"componentType":5126,"count":108,"max":[0.600000023841858,0.189999997615814,1.69999992847443],"min":[0.100000001490116,-0.0199999958276749,1.63999998569489],"normalized":false,"type":"VEC3"},{"bufferView":11,"byteOffset":0,"componentType":5126,"count":108,"max":[-0.0000152597203850746,0.0000457791611552238,1.0,-1.0],"min":[-1.0,-1.0,-0.0000457784626632929,-1.0],"normalized":false,"type":"VEC4"},{"bufferView":12,"byteOffset":0,"componentType":5126,"count":108,"max":[1.0,1.0,1.0],"min":[-1.0,-1.0,-1.0],"normalized":false,"type":"VEC3"},{"bufferView":13,"byteOffset":0,"componentType":5126,"count":108,"max":[1.0,1.0],"min":[0.0,0.0],"normalized":false,"type":"VEC2"},{"bufferView":14,"byteOffset":0,"componentType":5123,"count":108,"max":[107.0],"min":[0.0],"normalized":false,"type":"SCALAR"},{"bufferView":15,"byteOffset":0,"componentType":5126,"count":1074,"max":[1.36596763134003,0.386735171079636,2.74950003623962],"min":[-2.125,-0.0630723536014557,-0.745499968528748],"normalized":false,"type":"VEC3"},{"bufferView":16,"byteOffset":0,"componentType":5126,"count":1074,"max":[1.0,0.422614544630051,1.0,1.0],"min":[-1.0,-1.0,-1.0,-1.0],"normalized":false,"type":"VEC4"},{"bufferView":17,"byteOffset":0,"componentType":5126,"count":1074,"max":[1.0,1.0,1.0],"min":[-1.0,-1.0,-1.0],"normalized":false,"type":"VEC3"},{"bufferView":18,"byteOffset":0,"componentType":5126,"count":1074,"max":[1.0,1.0],"min":[0.0,0.0],"normalized":false,"type":"VEC2"},{"bufferView":19,"byteOffset":0,"componentType":5123,"count":1074,"max":[1073.0],"min":[0.0],"normalized":false,"type":"SCALAR"},{"bufferView":20,"byteOffset":0,"componentType":5126,"count":126,"max":[1.17000007629395,0.219999998807907,1.58000004291534],"min":[-0.865000069141388,-0.0199999958276749,0.269999980926514],"normalized":false,"type":"VEC3"},{"bufferView":21,"byteOffset":0,"componentType":5126,"count":126,"max":[0.0,0.0,0.0000152592547237873,1.0],"min":[-1.0,-1.0,-1.0,1.0],"normalized":false,"type":"VEC4"},{"bufferView":22,"byteOffset":0,"componentType":5126,"count":126,"max":[1.0,0.0,1.0],"min":[-1.0,-1.0,-1.0],"normalized":false,"type":"VEC3"},{"bufferView":23,"byteOffset":0,"componentType":5126,"count":126,"max":[1.0,1.0],"min":[0.0,0.0],"normalized":false,"type":"VEC2"},{"bufferView":24,"byteOffset":0,"componentType":5123,"count":126,"max":[125.0],"min":[0.0],"normalized":false,"type":"SCALAR"},{"bufferView":25,"byteOffset":0,"componentType":5126,"count":108,"max":[0.600000023841858,0.189999997615814,1.69999992847443],"min":[0.100000001490116,-0.0199999958276749,1.63999998569489],"normalized":false,"type":"VEC3"},{"bufferView":26,"byteOffset":0,"componentType":5126,"count":108,"max":[-0.0000152597203850746,0.0000457791611552238,1.0,-1.0],"min":[-1.0,-1.0,-0.0000457784626632929,-1.0],"normalized":false,"type":"VEC4"},{"bufferView":27,"byteOffset":0,"componentType":5126,"count":108,"max":[1.0,1.0,1.0],"min":[-1.0,-1.0,-1.0],"normalized":false,"type":"VEC3"},{"bufferView":28,"byteOffset":0,"componentType":5126,"count":108,"max":[1.0,1.0],"min":[0.0,0.0],"normalized":false,"type":"VEC2"},{"bufferView":29,"byteOffset":0,"componentType":5123,"count":108,"max":[107.0],"min":[0.0],"normalized":false,"type":"SCALAR"},{"bufferView":30,"byteOffset":0,"componentType":5126,"count":1074,"max":[1.36596763134003,0.386735171079636,2.74950003623962],"min":[-2.125,-0.0630723536014557,-0.745499968528748],"normalized":false,"type":"VEC3"},{"bufferView":31,"byteOffset":0,"componentType":5126,"count":1074,"max":[1.0,0.422614544630051,1.0,1.0],"min":[-1.0,-1.0,-1.0,-1.0],"normalized":false,"type":"VEC4"},{"bufferView":32,"byteOffset":0,"componentType":5126,"count":1074,"max":[1.0,1.0,1.0],"min":[-1.0,-1.0,-1.0],"normalized":false,"type":"VEC3"},{"bufferView":33,"byteOffset":0,"componentType":5126,"count":1074,"max":[1.0,1.0],"min":[0.0,0.0],"normalized":false,"type":"VEC2"},{"bufferView":34,"byteOffset":0,"componentType":5123,"count":1074,"max":[1073.0],"min":[0.0],"normalized":false,"type":"SCALAR"},{"bufferView":35,"byteOffset":0,"componentType":5126,"count":126,"max":[1.17000007629395,0.219999998807907,1.58000004291534],"min":[-0.865000069141388,-0.0199999958276749,0.269999980926514],"normalized":false,"type":"VEC3"},{"bufferView":36,"byteOffset":0,"componentType":5126,"count":126,"max":[0.0,0.0,0.0000152592547237873,1.0],"min":[-1.0,-1.0,-1.0,1.0],"normalized":false,"type":"VEC4"},{"bufferView":37,"byteOffset":0,"componentType":5126,"count":126,"max":[1.0,0.0,1.0],"min":[-1.0,-1.0,-1.0],"normalized":false,"type":"VEC3"},{"bufferView":38,"byteOffset":0,"componentType":5126,"count":126,"max":[1.0,1.0],"min":[0.0,0.0],"normalized":false,"type":"VEC2"},{"bufferView":39,"byteOffset":0,"componentType":5123,"count":126,"max":[125.0],"min":[0.0],"normalized":false,"type":"SCALAR"},{"bufferView":40,"byteOffset":0,"componentType":5126,"count":108,"max":[0.600000023841858,0.189999997615814,1.69999992847443],"min":[0.100000001490116,-0.0199999958276749,1.63999998569489],"normalized":false,"type":"VEC3"},{"bufferView":41,"byteOffset":0,"componentType":5126,"count":108,"max":[-0.0000152597203850746,0.0000457791611552238,1.0,-1.0],"min":[-1.0,-1.0,-0.0000457784626632929,-1.0],"normalized":false,"type":"VEC4"},{"bufferView":42,"byteOffset":0,"componentType":5126,"count":108,"max":[1.0,1.0,1.0],"min":[-1.0,-1.0,-1.0],"normalized":false,"type":"VEC3"},{"bufferView":43,"byteOffset":0,"componentType":5126,"count":108,"max":[1.0,1.0],"min":[0.0,0.0],"normalized":false,"type":"VEC2"},{"bufferView":44,"byteOffset":0,"componentType":5123,"count":108,"max":[107.0],"min":[0.0],"normalized":false,"type":"SCALAR"},{"bufferView":45,"byteOffset":0,"componentType":5126,"count":36,"max":[1.73000001907349,0.00499999988824129,1.73500001430511],"min":[-1.73000001907349,-0.00499999988824129,-1.73500001430511],"normalized":false,"type":"VEC3"},{"bufferView":46,"byteOffset":0,"componentType":5126,"count":36,"max":[0.0,0.0,0.0000763009302318096,-1.0],"min":[-1.0,-1.0,-1.0,-1.0],"normalized":false,"type":"VEC4"},{"bufferView":47,"byteOffset":0,"componentType":5126,"count":36,"max":[1.0,1.0,1.0],"min":[-1.0,-1.0,-1.0],"normalized":false,"type":"VEC3"},{"bufferView":48,"byteOffset":0,"componentType":5126,"count":36,"max":[1.0,1.0],"min":[0.0,0.0],"normalized":false,"type":"VEC2"},{"bufferView":49,"byteOffset":0,"componentType":5123,"count":36,"max":[35.0],"min":[0.0],"normalized":false,"type":"SCALAR"},{"bufferView":50,"byteOffset":0,"componentType":5126,"count":2210,"max":[0.0499433688819408,0.0500000007450581,0.0499433688819408],"min":[-0.0499433688819408,-0.0500000007450581,-0.0499433688819408],"normalized":false,"type":"VEC3"},{"bufferView":51,"byteOffset":0,"componentType":5126,"count":2210,"max":[1.0,0.0,1.0,1.0],"min":[-1.0,-0.0000215795153053477,-1.0,1.0],"normalized":false,"type":"VEC4"},{"bufferView":52,"byteOffset":0,"componentType":5126,"count":2210,"max":[0.998868048191071,1.0,0.998868048191071],"min":[-0.998868823051453,-1.0,-0.998867213726044],"normalized":false,"type":"VEC3"},{"bufferView":53,"byteOffset":0,"componentType":5126,"count":2210,"max":[1.0,1.0],"min":[0.0,0.0],"normalized":false,"type":"VEC2"},{"bufferView":54,"byteOffset":0,"componentType":5123,"count":12672,"max":[2209.0],"min":[0.0],"normalized":false,"type":"SCALAR"}],"asset":{"generator":"Godot Engine v4.4.1.stable.arch_linux@unknown","version":"2.0"},"bufferViews":[{"buffer":0,"byteLength":12888,"byteOffset":0,"byteStride":12,"target":34962},{"buffer":0,"byteLength":17184,"byteOffset":12888,"byteStride":16,"target":34962},{"buffer":0,"byteLength":12888,"byteOffset":30072,"byteStride":12,"target":34962},{"buffer":0,"byteLength":8592,"byteOffset":42960,"byteStride":8,"target":34962},{"buffer":0,"byteLength":2148,"byteOffset":51552,"target":34963},{"buffer":0,"byteLength":1512,"byteOffset":53700,"byteStride":12,"target":34962},{"buffer":0,"byteLength":2016,"byteOffset":55212,"byteStride":16,"target":34962},{"buffer":0,"byteLength":1512,"byteOffset":57228,"byteStride":12,"target":34962},{"buffer":0,"byteLength":1008,"byteOffset":58740,"byteStride":8,"target":34962},{"buffer":0,"byteLength":252,"byteOffset":59748,"target":34963},{"buffer":0,"byteLength":1296,"byteOffset":60000,"byteStride":12,"target":34962},{"buffer":0,"byteLength":1728,"byteOffset":61296,"byteStride":16,"target":34962},{"buffer":0,"byteLength":1296,"byteOffset":63024,"byteStride":12,"target":34962},{"buffer":0,"byteLength":864,"byteOffset":64320,"byteStride":8,"target":34962},{"buffer":0,"byteLength":216,"byteOffset":65184,"target":34963},{"buffer":0,"byteLength":12888,"byteOffset":65400,"byteStride":12,"target":34962},{"buffer":0,"byteLength":17184,"byteOffset":78288,"byteStride":16,"target":34962},{"buffer":0,"byteLength":12888,"byteOffset":95472,"byteStride":12,"target":34962},{"buffer":0,"byteLength":8592,"byteOffset":108360,"byteStride":8,"target":34962},{"buffer":0,"byteLength":2148,"byteOffset":116952,"target":34963},{"buffer":0,"byteLength":1512,"byteOffset":119100,"byteStride":12,"target":34962},{"buffer":0,"byteLength":2016,"byteOffset":120612,"byteStride":16,"target":34962},{"buffer":0,"byteLength":1512,"byteOffset":122628,"byteStride":12,"target":34962},{"buffer":0,"byteLength":1008,"byteOffset":124140,"byteStride":8,"target":34962},{"buffer":0,"byteLength":252,"byteOffset":125148,"target":34963},{"buffer":0,"byteLength":1296,"byteOffset":125400,"byteStride":12,"target":34962},{"buffer":0,"byteLength":1728,"byteOffset":126696,"byteStride":16,"target":34962},{"buffer":0,"byteLength":1296,"byteOffset":128424,"byteStride":12,"target":34962},{"buffer":0,"byteLength":864,"byteOffset":129720,"byteStride":8,"target":34962},{"buffer":0,"byteLength":216,"byteOffset":130584,"target":34963},{"buffer":0,"byteLength":12888,"byteOffset":130800,"byteStride":12,"target":34962},{"buffer":0,"byteLength":17184,"byteOffset":143688,"byteStride":16,"target":34962},{"buffer":0,"byteLength":12888,"byteOffset":160872,"byteStride":12,"target":34962},{"buffer":0,"byteLength":8592,"byteOffset":173760,"byteStride":8,"target":34962},{"buffer":0,"byteLength":2148,"byteOffset":182352,"target":34963},{"buffer":0,"byteLength":1512,"byteOffset":184500,"byteStride":12,"target":34962},{"buffer":0,"byteLength":2016,"byteOffset":186012,"byteStride":16,"target":34962},{"buffer":0,"byteLength":1512,"byteOffset":188028,"byteStride":12,"target":34962},{"buffer":0,"byteLength":1008,"byteOffset":189540,"byteStride":8,"target":34962},{"buffer":0,"byteLength":252,"byteOffset":190548,"target":34963},{"buffer":0,"byteLength":1296,"byteOffset":190800,"byteStride":12,"target":34962},{"buffer":0,"byteLength":1728,"byteOffset":192096,"byteStride":16,"target":34962},{"buffer":0,"byteLength":1296,"byteOffset":193824,"byteStride":12,"target":34962},{"buffer":0,"byteLength":864,"byteOffset":195120,"byteStride":8,"target":34962},{"buffer":0,"byteLength":216,"byteOffset":195984,"target":34963},{"buffer":0,"byteLength":432,"byteOffset":196200,"byteStride":12,"target":34962},{"buffer":0,"byteLength":576,"byteOffset":196632,"byteStride":16,"target":34962},{"buffer":0,"byteLength":432,"byteOffset":197208,"byteStride":12,"target":34962},{"buffer":0,"byteLength":288,"byteOffset":197640,"byteStride":8,"target":34962},{"buffer":0,"byteLength":72,"byteOffset":197928,"target":34963},{"buffer":0,"byteLength":26520,"byteOffset":198000,"byteStride":12,"target":34962},{"buffer":0,"byteLength":35360,"byteOffset":224520,"byteStride":16,"target":34962},{"buffer":0,"byteLength":26520,"byteOffset":259880,"byteStride":12,"target":34962},{"buffer":0,"byteLength":17680,"byteOffset":286400,"byteStride":8,"target":34962},{"buffer":0,"byteLength":25344,"byteOffset":304080,"target":34963}],"buffers":[{"byteLength":329424,"uri":"main0.bin"}],"cameras":[{"perspective":{"yfov":1.30899691581726,"zfar":4000.0,"znear":0.0500000007450581},"type":"perspective"}],"extensions":{"KHR_lights_punctual":{"lights":[{"type":"directional"}]},"OMI_physics_shape":{"shapes":[{"trimesh":{"mesh":0},"type":"trimesh"},{"box":{"size":[3.50999999046326,0.0199999995529652,3.53999996185303]},"type":"box"},{"sphere":{"radius":0.0434058010578156},"type":"sphere"}]}},"extensionsUsed":["GODOT_single_root","KHR_lights_punctual","OMI_physics_body","OMI_physics_shape"],"images":[{"uri":"textures%2F_albedo000.png"},{"uri":"textures%2F_albedo002.png"},{"uri":"textures%2F_albedo003.png"}],"materials":[{"extensions":{},"pbrMetallicRoughness":{"baseColorFactor":[1.0,1.0,1.0,1.0],"baseColorTexture":{"index":0},"metallicFactor":0.720000028610229,"roughnessFactor":1.0}},{},{"extensions":{},"pbrMetallicRoughness":{"baseColorFactor":[1.0,1.0,1.0,1.0],"baseColorTexture":{"index":1},"metallicFactor":0.0,"roughnessFactor":1.0}},{},{},{"extensions":{},"pbrMetallicRoughness":{"baseColorFactor":[1.0,1.0,1.0,1.0],"baseColorTexture":{"index":2},"metallicFactor":0.0,"roughnessFactor":1.0}}],"meshes":[{"extras":{"targetNames":[]},"primitives":[{"attributes":{"NORMAL":2,"POSITION":0,"TANGENT":1,"TEXCOORD_0":3},"indices":4,"material":0,"mode":4},{"attributes":{"NORMAL":7,"POSITION":5,"TANGENT":6,"TEXCOORD_0":8},"indices":9,"material":1,"mode":4},{"attributes":{"NORMAL":12,"POSITION":10,"TANGENT":11,"TEXCOORD_0":13},"indices":14,"material":2,"mode":4}]},{"extras":{"targetNames":[]},"primitives":[{"attributes":{"NORMAL":17,"POSITION":15,"TANGENT":16,"TEXCOORD_0":18},"indices":19,"material":0,"mode":4},{"attributes":{"NORMAL":22,"POSITION":20,"TANGENT":21,"TEXCOORD_0":23},"indices":24,"material":3,"mode":4},{"attributes":{"NORMAL":27,"POSITION":25,"TANGENT":26,"TEXCOORD_0":28},"indices":29,"material":2,"mode":4}]},{"extras":{"targetNames":[]},"primitives":[{"attributes":{"NORMAL":32,"POSITION":30,"TANGENT":31,"TEXCOORD_0":33},"indices":34,"material":0,"mode":4},{"attributes":{"NORMAL":37,"POSITION":35,"TANGENT":36,"TEXCOORD_0":38},"indices":39,"material":4,"mode":4},{"attributes":{"NORMAL":42,"POSITION":40,"TANGENT":41,"TEXCOORD_0":43},"indices":44,"material":2,"mode":4}]},{"extras":{"targetNames":[]},"primitives":[{"attributes":{"NORMAL":47,"POSITION":45,"TANGENT":46,"TEXCOORD_0":48},"indices":49,"material":0,"mode":4}]},{"extras":{"targetNames":[]},"primitives":[{"attributes":{"NORMAL":52,"POSITION":50,"TANGENT":51,"TEXCOORD_0":53},"indices":54,"material":5,"mode":4}]}],"nodes":[{"children":[1,2,3,34],"name":"main"},{"name":"WorldEnvironment"},{"extensions":{"KHR_lights_punctual":{"light":0}},"name":"DirectionalLight3D","rotation":[0.0742300674319267,0.222757518291473,0.939889192581177,0.247946038842201],"translation":[1.0,3.40000009536743,3.59999990463257]},{"children":[4,28,29,30,31],"name":"house"},{"children":[5,6,7,8,9,10,11,12,13,14,15,16,17,18,19,20,21,22,23,24,25,26,27],"mesh":0,"name":"CSGCombiner3D2"},{"name":"CSGCylinder3D","translation":[0.800000011920929,0.185000002384186,0.0]},{"name":"CSGBox3D2","translation":[0.25,0.180000007152557,0.499500006437302]},{"name":"CSGBox3D7","rotation":[-0.690345525741577,0.153045907616615,-0.153045907616615,0.690345525741577],"translation":[-0.39259085059166,0.16183140873909,-0.300500005483627]},{"name":"CSGBox3D3","translation":[-0.379999995231628,0.180000007152557,-0.730499982833862]},{"name":"CSGBox3D4","rotation":[0.0,0.70710676908493,0.0,0.70710676908493],"translation":[1.35000002384186,0.180000007152557,-0.115500003099442]},{"name":"CSGBox3D5","rotation":[0.0,0.70710676908493,0.0,0.70710676908493],"translation":[-0.850000023841858,0.180000007152557,-0.115500003099442]},{"name":"CSGBox3D6","translation":[0.25,0.180000007152557,1.72950005531311]},{"name":"CSGBox3D8","rotation":[0.000720701995305717,0.706717789173126,0.0017618655692786,0.70749306678772],"translation":[1.35000002384186,0.180000007152557,1.11450004577637]},{"name":"CSGBox3D22","rotation":[0.0,0.70710676908493,0.0,0.70710676908493],"translation":[1.35000002384186,0.180000007152557,2.23449993133545]},{"name":"CSGBox3D9","rotation":[0.0,0.70710676908493,0.0,0.70710676908493],"translation":[-0.850000023841858,0.180000007152557,1.11450004577637]},{"name":"CSGBox3D21","rotation":[0.0,0.70710676908493,0.0,0.70710676908493],"translation":[-2.10999989509583,0.180000007152557,1.00450003147125]},{"name":"CSGBox3D10","rotation":[0.0,0.70710676908493,0.0,0.70710676908493],"translation":[-0.00000011920899822826,0.180000007152557,1.11450004577637]},{"name":"CSGBox3D20","translation":[-0.379999995231628,0.180000007152557,2.73449993133545]},{"name":"CSGBox3D","translation":[-0.5,0.100000001490116,0.509999990463257]},{"name":"CSGBox3D11","translation":[0.204999998211861,0.100000001490116,0.509999990463257]},{"name":"CSGBox3D12","translation":[1.10000002384186,0.100000001490116,0.509999990463257]},{"name":"CSGBox3D13","rotation":[0.0,0.70710676908493,0.0,0.70710676908493],"translation":[0.0,0.100000001490116,0.709999978542328]},{"name":"CSGBox3D18","rotation":[0.0,0.70710676908493,0.0,0.70710676908493],"translation":[-0.860000014305115,0.100000001490116,0.344999998807907]},{"name":"CSGBox3D19","rotation":[0.0,0.70710676908493,0.0,0.70710676908493],"translation":[-0.860000014305115,0.100000001490116,0.665000021457672]},{"name":"CSGBox3D14","rotation":[0.0,0.70710676908493,0.0,0.70710676908493],"translation":[0.0,0.100000001490116,1.50999999046326]},{"name":"CSGBox3D15","rotation":[0.0,0.70710676908493,0.0,0.70710676908493],"translation":[0.155000001192093,0.0850000008940697,1.66999995708466]},{"name":"CSGBox3D16","rotation":[0.0,0.70710676908493,0.0,0.70710676908493],"translation":[0.365000009536743,0.0850000008940697,1.66999995708466]},{"name":"CSGBox3D17","rotation":[0.0,0.70710676908493,0.0,0.70710676908493],"translation":[0.550000011920929,0.0850000008940697,1.66999995708466]},{"mesh":1,"name":"CSGBakedMeshInstance3D2"},{"extensions":{"OMI_physics_body":{"collider":{"shape":0}}},"name":"CSGBakedCollisionShape3D"},{"mesh":2,"name":"CSGBakedMeshInstance3D"},{"children":[32,33],"extensions":{"OMI_physics_body":{"motion":{"type":"static"}}},"name":"StaticBody3D"},{"mesh":3,"name":"ground2","translation":[-0.379999995231628,-0.0282030999660492,1.00499999523163]},{"extensions":{"OMI_physics_body":{"collider":{"shape":1}}},"name":"CollisionShape3D","translation":[-0.372000008821487,-0.0262499991804361,1.00750005245209]},{"children":[35,36,37],"extensions":{"OMI_physics_body":{"motion":{"type":"kinematic"}}},"name":"player","translation":[0.0,0.591751992702484,0.0]},{"camera":0,"name":"playercamera","rotation":[-0.173648044466972,0.0,0.0,0.984807789325714],"translation":[0.0299999993294477,0.239999994635582,0.219999998807907]},{"extensions":{"OMI_physics_body":{"collider":{"shape":2}}},"name":"CollisionShape3D2","translation":[0.0,0.00999999977648258,0.0]},{"mesh":4,"name":"CSGSphere3D","translation":[0.0,0.00999999977648258,0.0]}],"samplers":[{"magFilter":9729,"minFilter":9987,"wrapS":10497,"wrapT":10497}],"scene":0,"scenes":[{"nodes":[0]}],"textures":[{"sampler":0,"source":0},{"sampler":0,"source":1},{"sampler":0,"source":2}]}