{"accessors":[{"bufferView":0,"byteOffset":0,"componentType":5126,"count":510,"max":[1.35049998760223,0.5,2.01000022888184],"min":[-0.850500106811523,-0.033203125,-0.731000065803528],"normalized":false,"type":"VEC3"},{"bufferView":1,"byteOffset":0,"componentType":5126,"count":510,"max":[1.0,0.0000598131664446555,1.0,1.0],"min":[-1.0,-1.0,-1.0,-1.0],"normalized":false,"type":"VEC4"},{"bufferView":2,"byteOffset":0,"componentType":5126,"count":510,"max":[1.0,1.0,1.0],"min":[-1.0,-1.0,-1.0],"normalized":false,"type":"VEC3"},{"bufferView":3,"byteOffset":0,"componentType":5126,"count":510,"max":[1.0,1.0],"min":[0.0,0.0],"normalized":false,"type":"VEC2"},{"bufferView":4,"byteOffset":0,"componentType":5123,"count":510,"max":[509.0],"min":[0.0],"normalized":false,"type":"SCALAR"}],"asset":{"generator":"Godot Engine v4.4.1.stable.arch_linux@unknown","version":"2.0"},"bufferViews":[{"buffer":0,"byteLength":6120,"byteOffset":0,"byteStride":12,"target":34962},{"buffer":0,"byteLength":8160,"byteOffset":6120,"byteStride":16,"target":34962},{"buffer":0,"byteLength":6120,"byteOffset":14280,"byteStride":12,"target":34962},{"buffer":0,"byteLength":4080,"byteOffset":20400,"byteStride":8,"target":34962},{"buffer":0,"byteLength":1020,"byteOffset":24480,"target":34963}],"buffers":[{"byteLength":25500,"uri":"main0.bin"}],"extensionsUsed":["GODOT_single_root"],"materials":[{}],"meshes":[{"extras":{"targetNames":[]},"primitives":[{"attributes":{"NORMAL":2,"POSITION":0,"TANGENT":1,"TEXCOORD_0":3},"indices":4,"material":0,"mode":4}]}],"nodes":[{"children":[1],"name":"main"},{"children":[2],"name":"house"},{"children":[3,4,5,6,7,8,9,10,11,12],"mesh":0,"name":"CSGCombiner3D2"},{"name":"ground","translation":[0.250000089406967,-0.0282031260430813,0.640000104904175]},{"name":"CSGCylinder3D","translation":[0.800000011920929,0.25,0.0]},{"name":"CSGBox3D2","translation":[0.249999940395355,0.179999992251396,0.499500006437302]},{"name":"CSGBox3D3","translation":[0.249999940395355,0.179999992251396,-0.730500042438507]},{"name":"CSGBox3D4","rotation":[0.0,0.70710676908493,0.0,0.70710676908493],"translation":[1.34999990463257,0.179999992251396,-0.115499928593636]},{"name":"CSGBox3D5","rotation":[0.0,0.70710676908493,0.0,0.70710676908493],"translation":[-0.850000083446503,0.179999992251396,-0.115499928593636]},{"name":"CSGBox3D6","translation":[0.249999940395355,0.179999992251396,1.72950005531311]},{"name":"CSGBox3D7","translation":[0.249999940395355,0.179999992251396,0.499500006437302]},{"name":"CSGBox3D8","rotation":[0.0,0.70710676908493,0.0,0.70710676908493],"translation":[1.34999990463257,0.179999992251396,1.11450004577637]},{"name":"CSGBox3D9","rotation":[0.0,0.70710676908493,0.0,0.70710676908493],"translation":[-0.850000083446503,0.179999992251396,1.11450004577637]}],"scene":0,"scenes":[{"nodes":[0]}]}